ffmpeg started on 2016-12-03 at 06:36:59
Report written to "Output/x264/results/ffmpeg/old_town_cross_2160p50placebo4500k.log"
Command line:
Tools/ffmpeg/ffmpeg -benchmark -y -i Input/y4m/old_town_cross_2160p50.y4m -c:v libx264 -preset placebo -b:v 4500k -an Output/x264/encoded/old_town_cross_2160p50placebo4500k.mkv
ffmpeg version N-82227-gdb23fde Copyright (c) 2000-2016 the FFmpeg developers
  built with gcc 5.4.0 (Ubuntu 5.4.0-6ubuntu1~16.04.2) 20160609
  configuration: --prefix=/home/jaroslav/ffmpeg_build --pkg-config-flags=--static --extra-cflags=-I/home/jaroslav/ffmpeg_build/include --extra-ldflags=-L/home/jaroslav/ffmpeg_build/lib --bindir=/home/jaroslav/bin --enable-gpl --enable-libass --enable-libfdk-aac --enable-libfreetype --enable-libmp3lame --enable-libopus --enable-libtheora --enable-libvorbis --enable-libvpx --enable-libx264 --enable-libx265 --enable-nvenc --enable-libmfx --enable-libxvid --enable-libgsm --enable-libopencore-amrnb --enable-version3 --enable-nonfree
  libavutil      55. 35.100 / 55. 35.100
  libavcodec     57. 66.101 / 57. 66.101
  libavformat    57. 57.100 / 57. 57.100
  libavdevice    57.  2.100 / 57.  2.100
  libavfilter     6. 66.100 /  6. 66.100
  libswscale      4.  3.100 /  4.  3.100
  libswresample   2.  4.100 /  2.  4.100
  libpostproc    54.  2.100 / 54.  2.100
Input #0, yuv4mpegpipe, from 'Input/y4m/old_town_cross_2160p50.y4m':
  Duration: 00:00:10.00, start: 0.000000, bitrate: 4976642 kb/s
    Stream #0:0: Video: rawvideo (I420 / 0x30323449), yuv420p(progressive), 3840x2160, SAR 1:1 DAR 16:9, 50 fps, 50 tbr, 50 tbn, 50 tbc
[libx264 @ 0x2d09120] using SAR=1/1
[libx264 @ 0x2d09120] DPB size (16 frames, 518400 mbs) > level limit (5 frames, 184320 mbs)
[libx264 @ 0x2d09120] using cpu capabilities: MMX2 SSE2Fast SSSE3 SSE4.2 AVX FMA3 AVX2 LZCNT BMI2
[libx264 @ 0x2d09120] profile High, level 5.2
[libx264 @ 0x2d09120] 264 - core 148 - H.264/MPEG-4 AVC codec - Copyleft 2003-2016 - http://www.videolan.org/x264.html - options: cabac=1 ref=16 deblock=1:0:0 analyse=0x3:0x133 me=tesa subme=11 psy=1 psy_rd=1.00:0.00 mixed_ref=1 me_range=24 chroma_me=1 trellis=2 8x8dct=1 cqm=0 deadzone=21,11 fast_pskip=0 chroma_qp_offset=-2 threads=6 lookahead_threads=1 sliced_threads=0 nr=0 decimate=1 interlaced=0 bluray_compat=0 constrained_intra=0 bframes=16 b_pyramid=2 b_adapt=2 b_bias=0 direct=3 weightb=1 open_gop=0 weightp=2 keyint=250 keyint_min=25 scenecut=40 intra_refresh=0 rc_lookahead=60 rc=abr mbtree=1 bitrate=4500 ratetol=1.0 qcomp=0.60 qpmin=0 qpmax=69 qpstep=4 ip_ratio=1.40 aq=1:1.00
Output #0, matroska, to 'Output/x264/encoded/old_town_cross_2160p50placebo4500k.mkv':
  Metadata:
    encoder         : Lavf57.57.100
    Stream #0:0: Video: h264 (libx264) (H264 / 0x34363248), yuv420p, 3840x2160 [SAR 1:1 DAR 16:9], q=-1--1, 4500 kb/s, 50 fps, 1k tbn, 50 tbc
    Metadata:
      encoder         : Lavc57.66.101 libx264
    Side data:
      cpb: bitrate max/min/avg: 0/0/4500000 buffer size: 0 vbv_delay: -1
Stream mapping:
  Stream #0:0 -> #0:0 (rawvideo (native) -> h264 (libx264))
Press [q] to stop, [?] for help
frame=   58 fps=0.0 q=0.0 size=       0kB time=00:00:00.00 bitrate=N/A speed=   0x    frame=   84 fps=3.3 q=0.0 size=       0kB time=00:00:00.00 bitrate=N/A speed=   0x    frame=   89 fps=3.4 q=41.0 size=       1kB time=-00:00:00.01 bitrate=N/A speed=N/A    frame=   90 fps=3.2 q=41.0 size=       1kB time=00:00:00.00 bitrate=5888.0kbits/s speed=3.55e-05x    frame=   91 fps=2.9 q=41.0 size=       1kB time=00:00:00.02 bitrate= 280.4kbits/s speed=0.00067x    frame=   92 fps=2.9 q=41.0 size=       1kB time=00:00:00.04 bitrate= 143.6kbits/s speed=0.00128x    frame=   96 fps=2.8 q=41.0 size=       1kB time=00:00:00.12 bitrate=  48.7kbits/s speed=0.00358x    frame=   97 fps=2.6 q=41.0 size=       1kB time=00:00:00.14 bitrate=  41.8kbits/s speed=0.00378x    frame=   98 fps=2.6 q=47.0 size=       1kB time=00:00:00.16 bitrate=  36.6kbits/s speed=0.00426x    frame=   99 fps=2.5 q=44.0 size=       1kB time=00:00:00.18 bitrate=  32.5kbits/s speed=0.00457x    frame=  103 fps=2.5 q=43.0 size=       1kB time=00:00:00.26 bitrate=  22.6kbits/s speed=0.00637x    frame=  104 fps=2.4 q=44.0 size=       1kB time=00:00:00.28 bitrate=  21.0kbits/s speed=0.00656x    frame=  105 fps=2.3 q=45.0 size=       1kB time=00:00:00.30 bitrate=  19.6kbits/s speed=0.0067x    frame=  106 fps=2.2 q=46.0 size=       1kB time=00:00:00.32 bitrate=  18.3kbits/s speed=0.00681x    frame=  109 fps=2.2 q=45.0 size=       1kB time=00:00:00.38 bitrate=  15.5kbits/s speed=0.0077x    frame=  114 fps=2.1 q=46.0 size=       1kB time=00:00:00.48 bitrate=  12.2kbits/s speed=0.0087x    frame=  115 fps=2.1 q=45.0 size=       1kB time=00:00:00.50 bitrate=  11.8kbits/s speed=0.00895x    frame=  116 fps=2.0 q=45.0 size=       1kB time=00:00:00.52 bitrate=  11.3kbits/s speed=0.00919x    frame=  120 fps=1.9 q=44.0 size=       1kB time=00:00:00.60 bitrate=   9.8kbits/s speed=0.00974x    frame=  121 fps=1.9 q=43.0 size=       1kB time=00:00:00.62 bitrate=   9.5kbits/s speed=0.00988x    frame=  122 fps=1.9 q=41.0 size=       1kB time=00:00:00.64 bitrate=   9.2kbits/s speed=0.0101x    frame=  125 fps=1.9 q=43.0 size=       1kB time=00:00:00.70 bitrate=   8.4kbits/s speed=0.0109x    frame=  126 fps=1.8 q=43.0 size=       1kB time=00:00:00.72 bitrate=   8.2kbits/s speed=0.0104x    frame=  127 fps=1.8 q=42.0 size=       1kB time=00:00:00.74 bitrate=   7.9kbits/s speed=0.0106x    frame=  128 fps=1.7 q=42.0 size=       1kB time=00:00:00.76 bitrate=   7.7kbits/s speed=0.0101x    frame=  129 fps=1.7 q=42.0 size=       1kB time=00:00:00.78 bitrate=   7.5kbits/s speed=0.0103x    frame=  130 fps=1.7 q=42.0 size=       1kB time=00:00:00.80 bitrate=   7.4kbits/s speed=0.0104x    frame=  134 fps=1.6 q=40.0 size=       1kB time=00:00:00.88 bitrate=   6.7kbits/s speed=0.0105x    frame=  135 fps=1.6 q=41.0 size=       1kB time=00:00:00.90 bitrate=   6.5kbits/s speed=0.0106x    frame=  136 fps=1.6 q=41.0 size=       1kB time=00:00:00.92 bitrate=   6.4kbits/s speed=0.0107x    frame=  137 fps=1.6 q=41.0 size=       1kB time=00:00:00.94 bitrate=   6.3kbits/s speed=0.0108x    frame=  140 fps=1.4 q=41.0 size=       1kB time=00:00:01.00 bitrate=   5.9kbits/s speed=0.0102x    frame=  141 fps=1.4 q=40.0 size=       1kB time=00:00:01.02 bitrate=   5.8kbits/s speed=0.0104x    frame=  142 fps=1.4 q=40.0 size=       1kB time=00:00:01.04 bitrate=   5.7kbits/s speed=0.0104x    frame=  146 fps=1.4 q=40.0 size=       1kB time=00:00:01.12 bitrate=   5.3kbits/s speed=0.0104x    frame=  148 fps=1.3 q=40.0 size=       1kB time=00:00:01.16 bitrate=   5.1kbits/s speed=0.0106x    frame=  149 fps=1.3 q=40.0 size=       1kB time=00:00:01.18 bitrate=   5.0kbits/s speed=0.0107x    frame=  150 fps=1.3 q=40.0 size=       1kB time=00:00:01.20 bitrate=   4.9kbits/s speed=0.0101x    frame=  151 fps=1.3 q=40.0 size=       1kB time=00:00:01.22 bitrate=   4.8kbits/s speed=0.0102x    frame=  152 fps=1.3 q=40.0 size=       1kB time=00:00:01.24 bitrate=   4.7kbits/s speed=0.0102x    frame=  155 fps=1.3 q=40.0 size=       1kB time=00:00:01.30 bitrate=   4.5kbits/s speed=0.0106x    frame=  156 fps=1.2 q=40.0 size=       1kB time=00:00:01.32 bitrate=   4.5kbits/s speed=0.0102x    frame=  158 fps=1.2 q=40.0 size=       1kB time=00:00:01.36 bitrate=   4.3kbits/s speed=0.0103x    frame=  159 fps=1.2 q=40.0 size=       1kB time=00:00:01.38 bitrate=   4.3kbits/s speed=0.0104x    frame=  160 fps=1.1 q=40.0 size=       1kB time=00:00:01.40 bitrate=   4.2kbits/s speed=0.00978x    frame=  161 fps=1.1 q=39.0 size=       1kB time=00:00:01.42 bitrate=   4.1kbits/s speed=0.00984x    frame=  162 fps=1.1 q=39.0 size=       1kB time=00:00:01.44 bitrate=   4.1kbits/s speed=0.00988x    frame=  164 fps=1.1 q=39.0 size=       1kB time=00:00:01.48 bitrate=   4.0kbits/s speed=0.01x    frame=  166 fps=1.1 q=39.0 size=       1kB time=00:00:01.52 bitrate=   3.9kbits/s speed=0.00973x    frame=  167 fps=1.1 q=39.0 size=       1kB time=00:00:01.54 bitrate=   3.8kbits/s speed=0.00978x    frame=  168 fps=1.0 q=39.0 size=       1kB time=00:00:01.56 bitrate=   3.8kbits/s speed=0.00972x    frame=  170 fps=1.0 q=39.0 size=       1kB time=00:00:01.60 bitrate=   3.7kbits/s speed=0.00947x    frame=  171 fps=1.0 q=39.0 size=       1kB time=00:00:01.62 bitrate=   3.6kbits/s speed=0.00947x    frame=  172 fps=1.0 q=39.0 size=       1kB time=00:00:01.64 bitrate=   3.6kbits/s speed=0.00952x    frame=  174 fps=1.0 q=39.0 size=       1kB time=00:00:01.68 bitrate=   3.5kbits/s speed=0.00947x    frame=  176 fps=1.0 q=39.0 size=       1kB time=00:00:01.72 bitrate=   3.4kbits/s speed=0.00943x    frame=  177 fps=1.0 q=39.0 size=       1kB time=00:00:01.74 bitrate=   3.4kbits/s speed=0.00944x    frame=  178 fps=1.0 q=39.0 size=       1kB time=00:00:01.76 bitrate=   3.3kbits/s speed=0.00948x    frame=  180 fps=0.9 q=39.0 size=       1kB time=00:00:01.80 bitrate=   3.3kbits/s speed=0.00934x    frame=  181 fps=0.9 q=39.0 size=       1kB time=00:00:01.82 bitrate=   3.2kbits/s speed=0.00908x    frame=  182 fps=0.9 q=39.0 size=       1kB time=00:00:01.84 bitrate=   3.2kbits/s speed=0.0091x    frame=  183 fps=0.9 q=39.0 size=       1kB time=00:00:01.86 bitrate=   3.2kbits/s speed=0.00913x    frame=  186 fps=0.9 q=38.0 size=       1kB time=00:00:01.92 bitrate=   3.1kbits/s speed=0.00932x    frame=  187 fps=0.9 q=39.0 size=       1kB time=00:00:01.94 bitrate=   3.0kbits/s speed=0.00903x    frame=  188 fps=0.9 q=39.0 size=       1kB time=00:00:01.96 bitrate=   3.0kbits/s speed=0.00902x    frame=  189 fps=0.9 q=39.0 size=       1kB time=00:00:01.98 bitrate=   3.0kbits/s speed=0.00905x    frame=  192 fps=0.8 q=39.0 size=       1kB time=00:00:02.04 bitrate=   2.9kbits/s speed=0.00882x    frame=  193 fps=0.8 q=39.0 size=       1kB time=00:00:02.06 bitrate=   2.9kbits/s speed=0.00886x    frame=  194 fps=0.8 q=39.0 size=       1kB time=00:00:02.08 bitrate=   2.8kbits/s speed=0.00889x    frame=  198 fps=0.8 q=38.0 size=       1kB time=00:00:02.16 bitrate=   2.7kbits/s speed=0.00879x    frame=  199 fps=0.8 q=38.0 size=       1kB time=00:00:02.18 bitrate=   2.7kbits/s speed=0.0088x    frame=  200 fps=0.8 q=38.0 size=       1kB time=00:00:02.20 bitrate=   2.7kbits/s speed=0.00885x    frame=  202 fps=0.8 q=38.0 size=       1kB time=00:00:02.24 bitrate=   2.6kbits/s speed=0.00894x    frame=  203 fps=0.8 q=38.0 size=       1kB time=00:00:02.26 bitrate=   2.6kbits/s speed=0.00875x    frame=  204 fps=0.8 q=38.0 size=       1kB time=00:00:02.28 bitrate=   2.6kbits/s speed=0.00871x    frame=  205 fps=0.8 q=38.0 size=       1kB time=00:00:02.30 bitrate=   2.6kbits/s speed=0.00869x    frame=  209 fps=0.8 q=38.0 size=       1kB time=00:00:02.38 bitrate=   2.5kbits/s speed=0.00877x    frame=  210 fps=0.7 q=38.0 size=       1kB time=00:00:02.40 bitrate=   2.5kbits/s speed=0.00848x    frame=  211 fps=0.7 q=38.0 size=       1kB time=00:00:02.42 bitrate=   2.4kbits/s speed=0.00851x    frame=  212 fps=0.7 q=38.0 size=       1kB time=00:00:02.44 bitrate=   2.4kbits/s speed=0.00854x    frame=  216 fps=0.7 q=38.0 size=       1kB time=00:00:02.52 bitrate=   2.3kbits/s speed=0.0085x    frame=  217 fps=0.7 q=38.0 size=       1kB time=00:00:02.54 bitrate=   2.3kbits/s speed=0.00849x    frame=  218 fps=0.7 q=38.0 size=       1kB time=00:00:02.56 bitrate=   2.3kbits/s speed=0.00852x    frame=  221 fps=0.7 q=38.0 size=       1kB time=00:00:02.62 bitrate=   2.2kbits/s speed=0.00843x    frame=  222 fps=0.7 q=38.0 size=       1kB time=00:00:02.64 bitrate=   2.2kbits/s speed=0.00842x    frame=  223 fps=0.7 q=38.0 size=       1kB time=00:00:02.66 bitrate=   2.2kbits/s speed=0.00842x    frame=  227 fps=0.7 q=38.0 size=       1kB time=00:00:02.74 bitrate=   2.1kbits/s speed=0.00841x    frame=  228 fps=0.7 q=38.0 size=       1kB time=00:00:02.76 bitrate=   2.1kbits/s speed=0.00845x    frame=  229 fps=0.7 q=38.0 size=       1kB time=00:00:02.78 bitrate=   2.1kbits/s speed=0.00841x    frame=  231 fps=0.7 q=38.0 size=       1kB time=00:00:02.82 bitrate=   2.1kbits/s speed=0.00848x    frame=  232 fps=0.7 q=38.0 size=       1kB time=00:00:02.84 bitrate=   2.1kbits/s speed=0.00831x    frame=  233 fps=0.7 q=38.0 size=       1kB time=00:00:02.86 bitrate=   2.1kbits/s speed=0.00833x    frame=  234 fps=0.7 q=38.0 size=       1kB time=00:00:02.88 bitrate=   2.0kbits/s speed=0.00835x    frame=  236 fps=0.7 q=38.0 size=       1kB time=00:00:02.92 bitrate=   2.0kbits/s speed=0.00843x    frame=  237 fps=0.7 q=38.0 size=       1kB time=00:00:02.94 bitrate=   2.0kbits/s speed=0.00846x    frame=  238 fps=0.7 q=38.0 size=       1kB time=00:00:02.96 bitrate=   2.0kbits/s speed=0.00831x    frame=  239 fps=0.7 q=38.0 size=       1kB time=00:00:02.98 bitrate=   2.0kbits/s speed=0.00832x    frame=  240 fps=0.7 q=38.0 size=       1kB time=00:00:03.00 bitrate=   2.0kbits/s speed=0.00819x    frame=  241 fps=0.7 q=38.0 size=       1kB time=00:00:03.02 bitrate=   1.9kbits/s speed=0.00822x    frame=  242 fps=0.7 q=38.0 size=       1kB time=00:00:03.04 bitrate=   1.9kbits/s speed=0.00825x    frame=  244 fps=0.7 q=38.0 size=       1kB time=00:00:03.08 bitrate=   1.9kbits/s speed=0.00835x    frame=  246 fps=0.6 q=38.0 size=       1kB time=00:00:03.12 bitrate=   1.9kbits/s speed=0.00819x    frame=  247 fps=0.6 q=38.0 size=       1kB time=00:00:03.14 bitrate=   1.9kbits/s speed=0.00822x    frame=  249 fps=0.6 q=38.0 size=       1kB time=00:00:03.18 bitrate=   1.9kbits/s speed=0.0083x    frame=  250 fps=0.7 q=38.0 size=       1kB time=00:00:03.20 bitrate=   1.8kbits/s speed=0.00833x    frame=  251 fps=0.6 q=38.0 size=       1kB time=00:00:03.22 bitrate=   1.8kbits/s speed=0.00822x    frame=  252 fps=0.6 q=38.0 size=       1kB time=00:00:03.24 bitrate=   1.8kbits/s speed=0.00815x    frame=  253 fps=0.6 q=38.0 size=       1kB time=00:00:03.26 bitrate=   1.8kbits/s speed=0.00815x    frame=  257 fps=0.6 q=38.0 size=       1kB time=00:00:03.34 bitrate=   1.8kbits/s speed=0.00825x    frame=  258 fps=0.6 q=38.0 size=       1kB time=00:00:03.36 bitrate=   1.8kbits/s speed=0.00819x    frame=  259 fps=0.6 q=38.0 size=       1kB time=00:00:03.38 bitrate=   1.7kbits/s speed=0.00808x    frame=  260 fps=0.6 q=38.0 size=       1kB time=00:00:03.40 bitrate=   1.7kbits/s speed=0.0081x    frame=  261 fps=0.6 q=38.0 size=       1kB time=00:00:03.42 bitrate=   1.7kbits/s speed=0.00813x    frame=  265 fps=0.6 q=38.0 size=       1kB time=00:00:03.50 bitrate=   1.7kbits/s speed=0.00805x    frame=  266 fps=0.6 q=38.0 size=       1kB time=00:00:03.52 bitrate=   1.7kbits/s speed=0.00805x    frame=  267 fps=0.6 q=38.0 size=       1kB time=00:00:03.54 bitrate=   1.7kbits/s speed=0.00807x    frame=  270 fps=0.6 q=38.0 size=       1kB time=00:00:03.60 bitrate=   1.6kbits/s speed=0.00804x    frame=  271 fps=0.6 q=38.0 size=       1kB time=00:00:03.62 bitrate=   1.6kbits/s speed=0.00805x    frame=  272 fps=0.6 q=38.0 size=       1kB time=00:00:03.64 bitrate=   1.6kbits/s speed=0.00806x    frame=  273 fps=0.6 q=38.0 size=       1kB time=00:00:03.66 bitrate=   1.6kbits/s speed=0.00808x    frame=  274 fps=0.6 q=38.0 size=       1kB time=00:00:03.68 bitrate=   1.6kbits/s speed=0.00811x    frame=  276 fps=0.6 q=38.0 size=       1kB time=00:00:03.72 bitrate=   1.6kbits/s speed=0.00799x    frame=  278 fps=0.6 q=37.0 size=       1kB time=00:00:03.76 bitrate=   1.6kbits/s speed=0.00801x    frame=  280 fps=0.6 q=38.0 size=       1kB time=00:00:03.80 bitrate=   1.5kbits/s speed=0.00807x    frame=  281 fps=0.6 q=38.0 size=       1kB time=00:00:03.82 bitrate=   1.5kbits/s speed=0.0081x    frame=  282 fps=0.6 q=38.0 size=       1kB time=00:00:03.84 bitrate=   1.5kbits/s speed=0.00798x    frame=  283 fps=0.6 q=38.0 size=       1kB time=00:00:03.86 bitrate=   1.5kbits/s speed=0.00796x    frame=  284 fps=0.6 q=38.0 size=       1kB time=00:00:03.88 bitrate=   1.5kbits/s speed=0.00795x    frame=  285 fps=0.6 q=37.0 size=       1kB time=00:00:03.90 bitrate=   1.5kbits/s speed=0.00796x    frame=  286 fps=0.6 q=37.0 size=       1kB time=00:00:03.92 bitrate=   1.5kbits/s speed=0.00797x    frame=  288 fps=0.6 q=37.0 size=       1kB time=00:00:03.96 bitrate=   1.5kbits/s speed=0.00804x    frame=  289 fps=0.6 q=37.0 size=       1kB time=00:00:03.98 bitrate=   1.5kbits/s speed=0.00796x    frame=  290 fps=0.6 q=37.0 size=       1kB time=00:00:04.00 bitrate=   1.5kbits/s speed=0.00792x    frame=  291 fps=0.6 q=37.0 size=       1kB time=00:00:04.02 bitrate=   1.5kbits/s speed=0.00794x    frame=  292 fps=0.6 q=37.0 size=       1kB time=00:00:04.04 bitrate=   1.5kbits/s speed=0.00797x    frame=  293 fps=0.6 q=37.0 size=       1kB time=00:00:04.06 bitrate=   1.4kbits/s speed=0.00798x    frame=  295 fps=0.6 q=37.0 size=       1kB time=00:00:04.10 bitrate=   1.4kbits/s speed=0.00799x    frame=  296 fps=0.6 q=37.0 size=       1kB time=00:00:04.12 bitrate=   1.4kbits/s speed=0.00794x    frame=  297 fps=0.6 q=37.0 size=       1kB time=00:00:04.14 bitrate=   1.4kbits/s speed=0.00785x    frame=  298 fps=0.6 q=37.0 size=       1kB time=00:00:04.16 bitrate=   1.4kbits/s speed=0.00787x    frame=  299 fps=0.6 q=37.0 size=       1kB time=00:00:04.18 bitrate=   1.4kbits/s speed=0.00788x    frame=  302 fps=0.6 q=37.0 size=       1kB time=00:00:04.24 bitrate=   1.4kbits/s speed=0.00798x    frame=  303 fps=0.6 q=37.0 size=       1kB time=00:00:04.26 bitrate=   1.4kbits/s speed=0.00786x    frame=  304 fps=0.6 q=37.0 size=       1kB time=00:00:04.28 bitrate=   1.4kbits/s speed=0.00789x    frame=  305 fps=0.6 q=37.0 size=       1kB time=00:00:04.30 bitrate=   1.4kbits/s speed=0.0079x    frame=  307 fps=0.6 q=37.0 size=       1kB time=00:00:04.34 bitrate=   1.4kbits/s speed=0.0078x    frame=  308 fps=0.6 q=37.0 size=       1kB time=00:00:04.36 bitrate=   1.4kbits/s speed=0.00782x    frame=  309 fps=0.6 q=37.0 size=       1kB time=00:00:04.38 bitrate=   1.3kbits/s speed=0.00784x    frame=  311 fps=0.6 q=37.0 size=       1kB time=00:00:04.42 bitrate=   1.3kbits/s speed=0.00788x    frame=  313 fps=0.5 q=37.0 size=       1kB time=00:00:04.46 bitrate=   1.3kbits/s speed=0.00782x    frame=  314 fps=0.5 q=37.0 size=       1kB time=00:00:04.48 bitrate=   1.3kbits/s speed=0.00784x    frame=  315 fps=0.5 q=37.0 size=       1kB time=00:00:04.50 bitrate=   1.3kbits/s speed=0.00785x    frame=  316 fps=0.5 q=37.0 size=       1kB time=00:00:04.52 bitrate=   1.3kbits/s speed=0.00787x    frame=  317 fps=0.5 q=37.0 size=       1kB time=00:00:04.54 bitrate=   1.3kbits/s speed=0.00787x    frame=  319 fps=0.5 q=37.0 size=       1kB time=00:00:04.58 bitrate=   1.3kbits/s speed=0.00771x    frame=  320 fps=0.5 q=37.0 size=       1kB time=00:00:04.60 bitrate=   1.3kbits/s speed=0.00773x    frame=  321 fps=0.5 q=37.0 size=       1kB time=00:00:04.62 bitrate=   1.3kbits/s speed=0.00775x    frame=  325 fps=0.5 q=37.0 size=       1kB time=00:00:04.70 bitrate=   1.3kbits/s speed=0.00772x    frame=  326 fps=0.5 q=37.0 size=       1kB time=00:00:04.72 bitrate=   1.2kbits/s speed=0.00774x    frame=  328 fps=0.5 q=37.0 size=       1kB time=00:00:04.76 bitrate=   1.2kbits/s speed=0.00779x    frame=  329 fps=0.5 q=37.0 size=       1kB time=00:00:04.78 bitrate=   1.2kbits/s speed=0.0077x    frame=  330 fps=0.5 q=37.0 size=       1kB time=00:00:04.80 bitrate=   1.2kbits/s speed=0.00772x    frame=  331 fps=0.5 q=37.0 size=       1kB time=00:00:04.82 bitrate=   1.2kbits/s speed=0.0077x    frame=  332 fps=0.5 q=34.0 size=       1kB time=00:00:04.84 bitrate=   1.2kbits/s speed=0.00772x    frame=  335 fps=0.5 q=38.0 size=       1kB time=00:00:04.90 bitrate=   1.2kbits/s speed=0.00774x    frame=  337 fps=0.5 q=38.0 size=    2404kB time=00:00:04.94 bitrate=3984.9kbits/s speed=0.00776x    frame=  343 fps=0.5 q=39.0 size=    2404kB time=00:00:05.06 bitrate=3890.4kbits/s speed=0.00786x    frame=  349 fps=0.5 q=38.0 size=    2404kB time=00:00:05.18 bitrate=3800.3kbits/s speed=0.00798x    frame=  350 fps=0.5 q=38.0 size=    2404kB time=00:00:05.20 bitrate=3785.7kbits/s speed=0.00799x    frame=  351 fps=0.5 q=39.0 size=    2404kB time=00:00:05.22 bitrate=3771.2kbits/s speed=0.00801x    frame=  355 fps=0.5 q=39.0 size=    2404kB time=00:00:05.30 bitrate=3714.3kbits/s speed=0.00808x    frame=  356 fps=0.5 q=39.0 size=    2404kB time=00:00:05.32 bitrate=3700.3kbits/s speed=0.00807x    frame=  357 fps=0.5 q=39.0 size=    2404kB time=00:00:05.34 bitrate=3686.5kbits/s speed=0.00809x    frame=  358 fps=0.5 q=39.0 size=    2404kB time=00:00:05.36 bitrate=3672.7kbits/s speed=0.0081x    frame=  359 fps=0.5 q=39.0 size=    2404kB time=00:00:05.38 bitrate=3659.1kbits/s speed=0.0081x    frame=  360 fps=0.5 q=39.0 size=    2404kB time=00:00:05.40 bitrate=3645.5kbits/s speed=0.00812x    frame=  361 fps=0.5 q=39.0 size=    2404kB time=00:00:05.42 bitrate=3632.1kbits/s speed=0.00814x    frame=  362 fps=0.5 q=39.0 size=    2404kB time=00:00:05.44 bitrate=3618.7kbits/s speed=0.00813x    frame=  363 fps=0.5 q=39.0 size=    2404kB time=00:00:05.46 bitrate=3605.5kbits/s speed=0.00814x    frame=  364 fps=0.5 q=39.0 size=    2404kB time=00:00:05.48 bitrate=3592.3kbits/s speed=0.00816x    frame=  365 fps=0.5 q=39.0 size=    2404kB time=00:00:05.50 bitrate=3579.3kbits/s speed=0.00817x    frame=  366 fps=0.5 q=39.0 size=    2404kB time=00:00:05.52 bitrate=3566.3kbits/s speed=0.00819x    frame=  368 fps=0.5 q=38.0 size=    2404kB time=00:00:05.56 bitrate=3540.7kbits/s speed=0.0082x    frame=  369 fps=0.5 q=38.0 size=    2404kB time=00:00:05.58 bitrate=3528.0kbits/s speed=0.00819x    frame=  371 fps=0.5 q=39.0 size=    2404kB time=00:00:05.62 bitrate=3502.9kbits/s speed=0.00821x    frame=  372 fps=0.5 q=38.0 size=    2404kB time=00:00:05.64 bitrate=3490.4kbits/s speed=0.00823x    frame=  374 fps=0.5 q=38.0 size=    2404kB time=00:00:05.68 bitrate=3465.9kbits/s speed=0.00819x    frame=  375 fps=0.5 q=38.0 size=    2404kB time=00:00:05.70 bitrate=3453.7kbits/s speed=0.00821x    frame=  376 fps=0.5 q=38.0 size=    2404kB time=00:00:05.72 bitrate=3441.6kbits/s speed=0.00823x    frame=  380 fps=0.5 q=38.0 size=    2404kB time=00:00:05.80 bitrate=3394.2kbits/s speed=0.00824x    frame=  382 fps=0.5 q=38.0 size=    2404kB time=00:00:05.84 bitrate=3370.9kbits/s speed=0.00828x    frame=  386 fps=0.5 q=38.0 size=    2404kB time=00:00:05.92 bitrate=3325.4kbits/s speed=0.00827x    frame=  387 fps=0.5 q=38.0 size=    2404kB time=00:00:05.94 bitrate=3314.2kbits/s speed=0.00829x    frame=  388 fps=0.5 q=38.0 size=    2404kB time=00:00:05.96 bitrate=3303.1kbits/s speed=0.0083x    frame=  389 fps=0.5 q=38.0 size=    2404kB time=00:00:05.98 bitrate=3292.0kbits/s speed=0.00827x    frame=  390 fps=0.5 q=38.0 size=    2404kB time=00:00:06.00 bitrate=3281.0kbits/s speed=0.00829x    frame=  391 fps=0.5 q=38.0 size=    2404kB time=00:00:06.02 bitrate=3270.1kbits/s speed=0.0083x    frame=  392 fps=0.5 q=38.0 size=    2404kB time=00:00:06.04 bitrate=3259.3kbits/s speed=0.00832x    frame=  394 fps=0.5 q=38.0 size=    2404kB time=00:00:06.08 bitrate=3237.9kbits/s speed=0.00833x    frame=  395 fps=0.5 q=38.0 size=    2404kB time=00:00:06.10 bitrate=3227.3kbits/s speed=0.00827x    frame=  396 fps=0.5 q=38.0 size=    2404kB time=00:00:06.12 bitrate=3216.7kbits/s speed=0.00827x    frame=  398 fps=0.5 q=38.0 size=    2404kB time=00:00:06.16 bitrate=3195.8kbits/s speed=0.00831x    frame=  400 fps=0.5 q=38.0 size=    2404kB time=00:00:06.20 bitrate=3175.2kbits/s speed=0.00834x    frame=  401 fps=0.5 q=38.0 size=    2404kB time=00:00:06.22 bitrate=3165.0kbits/s speed=0.00831x    frame=  402 fps=0.5 q=38.0 size=    2404kB time=00:00:06.24 bitrate=3154.9kbits/s speed=0.00831x    frame=  403 fps=0.5 q=38.0 size=    2404kB time=00:00:06.26 bitrate=3144.8kbits/s speed=0.00827x    frame=  404 fps=0.5 q=38.0 size=    2404kB time=00:00:06.28 bitrate=3134.8kbits/s speed=0.00828x    frame=  405 fps=0.5 q=38.0 size=    2404kB time=00:00:06.30 bitrate=3124.8kbits/s speed=0.00829x    frame=  408 fps=0.5 q=38.0 size=    2404kB time=00:00:06.36 bitrate=3095.4kbits/s speed=0.00835x    frame=  409 fps=0.5 q=38.0 size=    2404kB time=00:00:06.38 bitrate=3085.7kbits/s speed=0.00826x    frame=  410 fps=0.5 q=38.0 size=    2404kB time=00:00:06.40 bitrate=3076.0kbits/s speed=0.00827x    frame=  411 fps=0.5 q=38.0 size=    2404kB time=00:00:06.42 bitrate=3066.4kbits/s speed=0.00829x    frame=  412 fps=0.5 q=38.0 size=    2404kB time=00:00:06.44 bitrate=3056.9kbits/s speed=0.00831x    frame=  414 fps=0.5 q=38.0 size=    2404kB time=00:00:06.48 bitrate=3038.0kbits/s speed=0.00835x    frame=  415 fps=0.5 q=38.0 size=    2404kB time=00:00:06.50 bitrate=3028.7kbits/s speed=0.00828x    frame=  416 fps=0.5 q=38.0 size=    2404kB time=00:00:06.52 bitrate=3019.4kbits/s speed=0.00822x    frame=  417 fps=0.5 q=38.0 size=    2404kB time=00:00:06.54 bitrate=3010.2kbits/s speed=0.00823x    frame=  418 fps=0.5 q=38.0 size=    2404kB time=00:00:06.56 bitrate=3001.0kbits/s speed=0.00824x    frame=  422 fps=0.5 q=38.0 size=    2404kB time=00:00:06.64 bitrate=2964.8kbits/s speed=0.00822x    frame=  423 fps=0.5 q=38.0 size=    2404kB time=00:00:06.66 bitrate=2955.9kbits/s speed=0.00824x    frame=  424 fps=0.5 q=38.0 size=    2404kB time=00:00:06.68 bitrate=2947.1kbits/s speed=0.00823x    frame=  427 fps=0.5 q=38.0 size=    2404kB time=00:00:06.74 bitrate=2920.9kbits/s speed=0.00819x    frame=  428 fps=0.5 q=38.0 size=    2404kB time=00:00:06.76 bitrate=2912.2kbits/s speed=0.00819x    frame=  429 fps=0.5 q=38.0 size=    2404kB time=00:00:06.78 bitrate=2903.6kbits/s speed=0.00821x    frame=  430 fps=0.5 q=38.0 size=    2404kB time=00:00:06.80 bitrate=2895.1kbits/s speed=0.00821x    frame=  433 fps=0.5 q=38.0 size=    2404kB time=00:00:06.86 bitrate=2869.8kbits/s speed=0.00819x    frame=  434 fps=0.5 q=38.0 size=    2404kB time=00:00:06.88 bitrate=2861.4kbits/s speed=0.0082x    frame=  435 fps=0.5 q=38.0 size=    2404kB time=00:00:06.90 bitrate=2853.1kbits/s speed=0.0082x    frame=  436 fps=0.5 q=38.0 size=    2404kB time=00:00:06.92 bitrate=2844.9kbits/s speed=0.00822x    frame=  437 fps=0.5 q=38.0 size=    2404kB time=00:00:06.94 bitrate=2836.7kbits/s speed=0.00823x    frame=  438 fps=0.5 q=38.0 size=    2404kB time=00:00:06.96 bitrate=2828.6kbits/s speed=0.00814x    frame=  439 fps=0.5 q=38.0 size=    2404kB time=00:00:06.98 bitrate=2820.4kbits/s speed=0.00815x    frame=  440 fps=0.5 q=38.0 size=    2404kB time=00:00:07.00 bitrate=2812.4kbits/s speed=0.00816x    frame=  442 fps=0.5 q=38.0 size=    2404kB time=00:00:07.04 bitrate=2796.4kbits/s speed=0.00819x    frame=  444 fps=0.5 q=38.0 size=    2404kB time=00:00:07.08 bitrate=2780.6kbits/s speed=0.00814x    frame=  446 fps=0.5 q=38.0 size=    2404kB time=00:00:07.12 bitrate=2765.0kbits/s speed=0.00817x    frame=  447 fps=0.5 q=38.0 size=    2404kB time=00:00:07.14 bitrate=2757.3kbits/s speed=0.00819x    frame=  448 fps=0.5 q=38.0 size=    2404kB time=00:00:07.16 bitrate=2749.6kbits/s speed=0.00809x    frame=  449 fps=0.5 q=38.0 size=    2404kB time=00:00:07.18 bitrate=2741.9kbits/s speed=0.0081x    frame=  450 fps=0.5 q=38.0 size=    2404kB time=00:00:07.20 bitrate=2734.3kbits/s speed=0.00811x    frame=  453 fps=0.5 q=38.0 size=    2404kB time=00:00:07.26 bitrate=2711.7kbits/s speed=0.00818x    frame=  454 fps=0.5 q=38.0 size=    2404kB time=00:00:07.28 bitrate=2704.2kbits/s speed=0.00811x    frame=  455 fps=0.5 q=38.0 size=    2404kB time=00:00:07.30 bitrate=2696.8kbits/s speed=0.00811x    frame=  456 fps=0.5 q=38.0 size=    2404kB time=00:00:07.32 bitrate=2689.5kbits/s speed=0.00813x    frame=  458 fps=0.5 q=38.0 size=    2404kB time=00:00:07.36 bitrate=2674.8kbits/s speed=0.00805x    frame=  459 fps=0.5 q=38.0 size=    2404kB time=00:00:07.38 bitrate=2667.6kbits/s speed=0.00806x    frame=  460 fps=0.5 q=38.0 size=    2404kB time=00:00:07.40 bitrate=2660.4kbits/s speed=0.00807x    frame=  464 fps=0.5 q=38.0 size=    2404kB time=00:00:07.48 bitrate=2631.9kbits/s speed=0.00807x    frame=  465 fps=0.5 q=38.0 size=    2404kB time=00:00:07.50 bitrate=2624.9kbits/s speed=0.00807x    frame=  466 fps=0.5 q=38.0 size=    2404kB time=00:00:07.52 bitrate=2617.9kbits/s speed=0.00808x    frame=  467 fps=0.5 q=38.0 size=    2404kB time=00:00:07.54 bitrate=2611.0kbits/s speed=0.00809x    frame=  468 fps=0.5 q=38.0 size=    2404kB time=00:00:07.56 bitrate=2604.1kbits/s speed=0.00804x    frame=  469 fps=0.5 q=38.0 size=    2404kB time=00:00:07.58 bitrate=2597.2kbits/s speed=0.00805x    frame=  470 fps=0.5 q=38.0 size=    2404kB time=00:00:07.60 bitrate=2590.4kbits/s speed=0.00806x    frame=  473 fps=0.5 q=38.0 size=    2404kB time=00:00:07.66 bitrate=2570.1kbits/s speed=0.0081x    frame=  474 fps=0.5 q=38.0 size=    2404kB time=00:00:07.68 bitrate=2563.4kbits/s speed=0.00801x    frame=  475 fps=0.5 q=38.0 size=    2404kB time=00:00:07.70 bitrate=2556.8kbits/s speed=0.00802x    frame=  477 fps=0.5 q=38.0 size=    2404kB time=00:00:07.74 bitrate=2543.5kbits/s speed=0.00805x    frame=  479 fps=0.5 q=38.0 size=    2404kB time=00:00:07.78 bitrate=2530.5kbits/s speed=0.00808x    frame=  480 fps=0.5 q=38.0 size=    2404kB time=00:00:07.80 bitrate=2524.0kbits/s speed=0.00798x    frame=  481 fps=0.5 q=38.0 size=    2404kB time=00:00:07.82 bitrate=2517.5kbits/s speed=0.00799x    frame=  482 fps=0.5 q=38.0 size=    2404kB time=00:00:07.84 bitrate=2511.1kbits/s speed=0.008x    frame=  486 fps=0.5 q=38.0 size=    2404kB time=00:00:07.92 bitrate=2485.7kbits/s speed=0.00795x    frame=  487 fps=0.5 q=38.0 size=    2404kB time=00:00:07.94 bitrate=2479.5kbits/s speed=0.00796x    frame=  492 fps=0.5 q=38.0 size=    2404kB time=00:00:08.04 bitrate=2448.6kbits/s speed=0.00797x    frame=  493 fps=0.5 q=38.0 size=    2404kB time=00:00:08.06 bitrate=2442.6kbits/s speed=0.00798x    frame=  495 fps=0.5 q=38.0 size=    2404kB time=00:00:08.10 bitrate=2430.5kbits/s speed=0.00794x    frame=  496 fps=0.5 q=38.0 size=    2404kB time=00:00:08.12 bitrate=2424.5kbits/s speed=0.00795x    frame=  497 fps=0.5 q=38.0 size=    2404kB time=00:00:08.14 bitrate=2418.6kbits/s speed=0.00796x    frame=  500 fps=0.5 q=38.0 size=    2404kB time=00:00:08.20 bitrate=2400.9kbits/s speed=0.00789x    frame=  500 fps=0.4 q=-1.0 Lsize=    5458kB time=00:00:09.94 bitrate=4497.8kbits/s speed=0.00784x    
video:5454kB audio:0kB subtitle:0kB other streams:0kB global headers:0kB muxing overhead: 0.079038%
bench: utime=4929.360s
bench: maxrss=6480412kB
[libx264 @ 0x2d09120] frame I:3     Avg QP:35.37  size:201195
[libx264 @ 0x2d09120] frame P:45    Avg QP:37.46  size: 34659
[libx264 @ 0x2d09120] frame B:452   Avg QP:40.11  size:  7568
[libx264 @ 0x2d09120] consecutive B-frames:  0.6%  0.0%  0.0%  0.0%  0.0%  0.0%  1.4%  3.2%  7.2% 30.0% 19.8%  9.6%  5.2% 14.0%  9.0%  0.0%  0.0%
[libx264 @ 0x2d09120] mb I  I16..4: 39.5% 52.5%  8.0%
[libx264 @ 0x2d09120] mb P  I16..4:  0.1%  0.8%  0.0%  P16..4: 32.7% 17.1%  2.7%  0.2%  0.0%    skip:46.4%
[libx264 @ 0x2d09120] mb B  I16..4:  0.0%  0.0%  0.0%  B16..8: 25.9%  1.2%  0.0%  direct: 0.0%  skip:72.8%  L0:48.2% L1:51.7% BI: 0.0%
[libx264 @ 0x2d09120] final ratefactor: 30.47
[libx264 @ 0x2d09120] 8x8 transform intra:56.6% inter:79.5%
[libx264 @ 0x2d09120] direct mvs  spatial:98.7% temporal:1.3%
[libx264 @ 0x2d09120] coded y,uvDC,uvAC intra: 45.9% 30.7% 11.1% inter: 0.4% 0.4% 0.0%
[libx264 @ 0x2d09120] i16 v,h,dc,p:  5% 23%  1% 71%
[libx264 @ 0x2d09120] i8 v,h,dc,ddl,ddr,vr,hd,vl,hu:  2%  2% 21% 13% 19% 11% 17%  6% 10%
[libx264 @ 0x2d09120] i4 v,h,dc,ddl,ddr,vr,hd,vl,hu:  2%  2% 12% 16% 19% 11% 17%  7% 13%
[libx264 @ 0x2d09120] i8c dc,h,v,p: 20% 61% 10%  8%
[libx264 @ 0x2d09120] Weighted P-Frames: Y:4.4% UV:2.2%
[libx264 @ 0x2d09120] ref P L0: 62.9% 22.7%  7.4%  1.7%  1.1%  1.4%  0.9%  0.2%  0.2%  0.3%  0.2%  0.3%  0.2%  0.3%  0.2%  0.1%
[libx264 @ 0x2d09120] ref B L0: 97.5%  1.4%  0.8%  0.1%  0.1%  0.0%  0.0%  0.0%  0.0%  0.0%  0.0%  0.0%  0.0%  0.0%  0.0%
[libx264 @ 0x2d09120] ref B L1: 98.3%  1.7%
[libx264 @ 0x2d09120] kb/s:4467.16
